<svg xmlns="http://www.w3.org/2000/svg" width="26.993" height="29.5" viewBox="0 0 26.993 29.5">
  <g id="viber" transform="translate(-0.5 0)">
    <path id="Path_4" data-name="Path 4" d="M111.15,160.086a.864.864,0,0,1-1.222,0L106,156.159a.864.864,0,0,1,0-1.222l.7-.7-2.051-2.051-1.68,1.68a1.452,1.452,0,0,0,0,2.051l7.2,7.2a1.457,1.457,0,0,0,2.051,0l1.68-1.68-2.051-2.051Zm0,0" transform="translate(-96.165 -143.42)" fill="#fff"/>
    <path id="Path_5" data-name="Path 5" d="M27.492,10.412A10.44,10.44,0,0,0,17.08,0h-6.17A10.44,10.44,0,0,0,.5,10.412v4.849A10.32,10.32,0,0,0,2.392,21.23a10.449,10.449,0,0,0,4.275,3.533v2.785c0,1.44.806,1.951,1.5,1.951a2.11,2.11,0,0,0,1.467-.724l3.1-3.1h4.346A10.44,10.44,0,0,0,27.493,15.261Zm-7.925,8.219-2.291,2.291a3.186,3.186,0,0,1-4.5,0l-7.2-7.2a3.183,3.183,0,0,1,0-4.5L7.872,6.935a.864.864,0,0,1,1.222,0l3.273,3.273a.864.864,0,0,1,0,1.222l-.7.7,2.705,2.705.7-.7a.864.864,0,0,1,1.222,0l3.273,3.273a.864.864,0,0,1,0,1.222ZM13.341,8.39a.864.864,0,0,1,.864-.864,5.437,5.437,0,0,1,5.431,5.43.864.864,0,1,1-1.729,0,3.706,3.706,0,0,0-3.7-3.7A.864.864,0,0,1,13.341,8.39Zm9.133,5.431a.864.864,0,0,1-.864-.864,7.4,7.4,0,0,0-7.405-7.405.864.864,0,1,1,0-1.729,9.134,9.134,0,0,1,9.134,9.134.864.864,0,0,1-.864.864Zm0,0" fill="#fff"/>
  </g>
</svg>
