<svg id="whatsapp" xmlns="http://www.w3.org/2000/svg" width="29" height="29" viewBox="0 0 29 29">
  <g id="Group_3" data-name="Group 3">
    <path id="Path_6" data-name="Path 6" d="M14.5,0H14.5A14.491,14.491,0,0,0,2.76,23L.953,28.386,6.527,26.6A14.5,14.5,0,1,0,14.5,0Zm8.437,20.476A4.092,4.092,0,0,1,20.1,22.522c-.758.161-1.747.29-5.079-1.091-4.261-1.765-7.005-6.1-7.219-6.376a8.281,8.281,0,0,1-1.722-4.374A4.629,4.629,0,0,1,7.558,7.152a2.107,2.107,0,0,1,1.483-.52c.179,0,.341.009.486.016.426.018.64.044.921.716.35.843,1.2,2.924,1.3,3.137a.863.863,0,0,1,.062.785,2.506,2.506,0,0,1-.469.665c-.214.247-.417.435-.631.7-.2.23-.417.477-.17.9a12.87,12.87,0,0,0,2.353,2.924,10.66,10.66,0,0,0,3.4,2.1.917.917,0,0,0,1.022-.161,17.544,17.544,0,0,0,1.133-1.5.809.809,0,0,1,1.04-.315c.392.136,2.463,1.16,2.889,1.372s.707.315.81.495A3.611,3.611,0,0,1,22.941,20.476Z" fill="#fff"/>
  </g>
</svg>
